<svg width="119" height="23" viewBox="0 0 119 23" fill="none" xmlns="http://www.w3.org/2000/svg">
<path d="M6.716 18.276C7.613 18.276 8.28 17.586 8.28 16.689V5.626H11.891C12.696 5.626 13.317 5.005 13.317 4.223C13.317 3.418 12.719 2.82 11.891 2.82H1.564C0.759 2.82 0.138 3.418 0.138 4.223C0.138 5.005 0.759 5.626 1.564 5.626H5.175V16.689C5.175 17.586 5.842 18.276 6.716 18.276ZM19.4751 6.362C16.1171 6.362 13.5641 8.938 13.5641 12.319C13.5641 15.723 16.2091 18.276 19.7971 18.276C21.1311 18.276 22.3731 17.908 23.4081 17.218C23.9601 16.85 24.1901 16.482 24.1901 15.976C24.1901 15.263 23.6381 14.734 22.9251 14.734C22.6951 14.734 22.4881 14.803 22.2581 14.941C21.5681 15.378 20.7171 15.608 19.8891 15.608C18.2101 15.608 17.0601 14.78 16.6921 13.354H23.1781C24.1901 13.354 24.8801 12.733 24.8801 11.767V11.698C24.8801 8.616 22.5801 6.362 19.4751 6.362ZM19.4061 8.869C20.8551 8.869 21.8211 9.812 21.8671 11.169H16.6921C17.0371 9.766 18.0491 8.869 19.4061 8.869ZM31.9028 18.276C34.3868 18.276 36.3418 16.988 36.3418 14.642C36.3418 12.871 35.1918 11.997 33.1448 11.169L32.0408 10.709C31.2128 10.387 30.8448 10.157 30.8448 9.697C30.8448 9.145 31.3278 8.892 32.0638 8.892C32.8228 8.892 33.5358 9.168 34.1338 9.582C34.4098 9.766 34.6858 9.904 34.9618 9.904C35.6518 9.904 36.2268 9.329 36.2268 8.616C36.2268 8.202 36.0428 7.834 35.6748 7.558C34.7548 6.776 33.4438 6.339 32.0868 6.339C29.6718 6.339 27.9008 7.581 27.9008 9.766C27.9008 11.56 29.0738 12.457 31.0058 13.239L32.2248 13.745C32.9148 14.044 33.3978 14.251 33.3978 14.78C33.3978 15.424 32.7308 15.723 31.9488 15.723C30.9598 15.723 30.1318 15.286 29.4648 14.711C29.1428 14.458 28.8668 14.366 28.5678 14.366C27.8548 14.366 27.2798 14.964 27.2798 15.677C27.2798 16.045 27.4178 16.39 27.7168 16.643C28.7288 17.632 30.2008 18.276 31.9028 18.276ZM45.8196 15.47C45.7046 15.47 45.5666 15.493 45.3826 15.493C43.9336 15.493 43.3356 14.987 43.3356 13.722V9.237H45.4286C46.1876 9.237 46.7396 8.685 46.7396 7.926C46.7396 7.167 46.1876 6.615 45.4286 6.615H43.3356V5.051C43.3356 4.154 42.6686 3.487 41.7946 3.487C40.8746 3.487 40.2306 4.154 40.2306 5.051V6.615H39.5866C38.8276 6.615 38.2526 7.167 38.2526 7.926C38.2526 8.685 38.8276 9.237 39.5866 9.237H40.2306V13.998C40.2306 16.781 41.8176 18.276 44.7846 18.276C45.4516 18.276 45.9576 18.161 46.3946 17.977C46.8776 17.747 47.1766 17.31 47.1766 16.735C47.1766 15.976 46.6476 15.47 45.8196 15.47ZM51.662 0.588999C50.581 0.588999 49.707 1.417 49.707 2.475C49.707 3.51 50.581 4.338 51.662 4.338C52.697 4.338 53.594 3.51 53.594 2.475C53.594 1.417 52.697 0.588999 51.662 0.588999ZM51.639 18.276C52.536 18.276 53.203 17.586 53.203 16.689V7.926C53.203 7.029 52.536 6.362 51.662 6.362C50.765 6.362 50.098 7.029 50.098 7.926V16.689C50.098 17.586 50.765 18.276 51.639 18.276ZM70.4427 6.362C68.9247 6.362 67.5447 6.983 66.6477 7.995C65.9117 6.937 64.7387 6.362 63.2667 6.362C62.0247 6.362 60.9667 6.776 60.1847 7.512C60.0007 6.822 59.4487 6.362 58.7357 6.362C57.8617 6.362 57.1947 7.029 57.1947 7.926V16.689C57.1947 17.586 57.8617 18.276 58.7587 18.276C59.6327 18.276 60.2997 17.609 60.2997 16.689V11.376C60.2997 10.042 61.1277 9.168 62.3927 9.168C63.6117 9.168 64.4167 10.019 64.4167 11.376V16.689C64.4167 17.586 65.0837 18.276 65.9807 18.276C66.8547 18.276 67.5217 17.609 67.5217 16.689V11.307C67.5217 10.042 68.3727 9.168 69.6147 9.168C70.8567 9.168 71.6387 10.019 71.6387 11.376V16.689C71.6387 17.586 72.3057 18.276 73.2027 18.276C74.0767 18.276 74.7437 17.609 74.7437 16.689V10.939C74.7437 8.133 73.0877 6.362 70.4427 6.362ZM84.0725 6.362C80.6455 6.362 77.9775 8.961 77.9775 12.296C77.9775 15.631 80.6455 18.253 84.0495 18.253C87.4765 18.253 90.1905 15.608 90.1905 12.296C90.1905 8.984 87.4765 6.362 84.0725 6.362ZM84.0725 9.191C85.7515 9.191 87.0165 10.525 87.0165 12.319C87.0165 14.09 85.7515 15.401 84.0725 15.401C82.3705 15.401 81.1285 14.113 81.1285 12.319C81.1285 10.502 82.3705 9.191 84.0725 9.191ZM99.7217 6.362C98.4567 6.362 97.3297 6.799 96.5247 7.535C96.3637 6.845 95.7887 6.362 95.0757 6.362C94.2017 6.362 93.5347 7.029 93.5347 7.926V16.689C93.5347 17.586 94.2017 18.276 95.0987 18.276C95.9727 18.276 96.6397 17.609 96.6397 16.689V11.353C96.6397 10.065 97.5367 9.145 98.8017 9.145C100.067 9.145 100.918 10.042 100.918 11.353V16.689C100.918 17.586 101.585 18.276 102.459 18.276C103.356 18.276 104 17.609 104 16.689V10.939C104 8.156 102.321 6.362 99.7217 6.362ZM117.247 6.362C116.626 6.362 116.097 6.707 115.867 7.236L112.785 13.975L109.772 7.236C109.542 6.684 109.013 6.362 108.415 6.362C107.587 6.362 106.897 7.052 106.897 7.857C106.897 8.087 106.966 8.317 107.104 8.593L111.037 17.264L110.623 18.184C110.117 19.219 109.45 19.633 108.461 19.633C108.392 19.633 108.3 19.61 108.185 19.61C107.403 19.61 106.782 20.185 106.782 20.944C106.782 21.473 107.081 21.956 107.564 22.163C107.909 22.324 108.369 22.416 108.875 22.416C110.945 22.416 112.325 21.358 113.544 18.851L118.558 8.57C118.696 8.317 118.742 8.087 118.742 7.857C118.742 7.052 118.052 6.362 117.247 6.362Z" fill="#242424"/>
</svg>
